<svg width="200" height="200" viewBox="0 0 200 200" fill="none" xmlns="http://www.w3.org/2000/svg">
<circle cx="100" cy="100" r="90" stroke="black" stroke-width="20"/>
<path d="M36 122.268V78.868H54.166C57.3487 78.868 60.2627 79.4053 62.908 80.48C65.5533 81.5133 67.8267 83.0013 69.728 84.944C71.6707 86.8867 73.1587 89.1807 74.192 91.826C75.2253 94.4713 75.742 97.3853 75.742 100.568C75.742 103.751 75.2253 106.685 74.192 109.372C73.1587 112.017 71.6707 114.311 69.728 116.254C67.8267 118.155 65.5533 119.643 62.908 120.718C60.2627 121.751 57.3487 122.268 54.166 122.268H36ZM46.54 115.076L45.114 112.968H53.856C55.592 112.968 57.142 112.679 58.506 112.1C59.87 111.48 61.0273 110.633 61.978 109.558C62.97 108.483 63.7347 107.181 64.272 105.652C64.8093 104.123 65.078 102.428 65.078 100.568C65.078 98.708 64.8093 97.0133 64.272 95.484C63.7347 93.9547 62.97 92.6527 61.978 91.578C61.0273 90.5033 59.87 89.6767 58.506 89.098C57.142 88.478 55.592 88.168 53.856 88.168H44.928L46.54 86.184V115.076Z" fill="#131313"/>
<path d="M103.609 122.888C100.343 122.888 97.3259 122.351 94.5566 121.276C91.8286 120.16 89.4519 118.61 87.4266 116.626C85.4012 114.601 83.8306 112.224 82.7146 109.496C81.6399 106.727 81.1026 103.689 81.1026 100.382C81.1026 97.158 81.6812 94.182 82.8386 91.454C83.9959 88.726 85.5872 86.37 87.6126 84.386C89.6792 82.3607 92.0972 80.79 94.8666 79.674C97.6772 78.558 100.736 78 104.043 78C106.109 78 108.135 78.2687 110.119 78.806C112.103 79.3433 113.942 80.1493 115.637 81.224C117.373 82.2573 118.861 83.4973 120.101 84.944L113.653 92.322C112.785 91.4127 111.855 90.6273 110.863 89.966C109.912 89.2633 108.858 88.726 107.701 88.354C106.543 87.982 105.303 87.796 103.981 87.796C102.327 87.796 100.757 88.106 99.2686 88.726C97.8219 89.3047 96.5406 90.152 95.4246 91.268C94.3499 92.3427 93.5026 93.6653 92.8826 95.236C92.2626 96.8067 91.9526 98.5633 91.9526 100.506C91.9526 102.407 92.2626 104.143 92.8826 105.714C93.5026 107.243 94.3706 108.566 95.4866 109.682C96.6026 110.798 97.9459 111.645 99.5166 112.224C101.129 112.803 102.906 113.092 104.849 113.092C106.171 113.092 107.432 112.906 108.631 112.534C109.829 112.162 110.925 111.666 111.917 111.046C112.95 110.385 113.859 109.641 114.645 108.814L119.729 116.874C118.695 118.031 117.311 119.065 115.575 119.974C113.88 120.883 111.979 121.607 109.871 122.144C107.804 122.64 105.717 122.888 103.609 122.888Z" fill="#131313"/>
<path d="M121.423 122.268L138.597 78.868H147.525L164.575 122.268H153.911L145.727 100.258C145.397 99.39 145.066 98.46 144.735 97.468C144.405 96.476 144.074 95.4633 143.743 94.43C143.413 93.3553 143.082 92.322 142.751 91.33C142.462 90.2967 142.214 89.346 142.007 88.478L143.867 88.416C143.619 89.4493 143.33 90.462 142.999 91.454C142.71 92.446 142.4 93.438 142.069 94.43C141.78 95.3807 141.449 96.352 141.077 97.344C140.705 98.2947 140.354 99.2867 140.023 100.32L131.839 122.268H121.423ZM129.607 113.96L132.893 106.024H152.857L156.081 113.96H129.607Z" fill="#131313"/>
</svg>
