
<svg width="535" height="200" viewBox="0 0 535 200" fill="none" xmlns="http://www.w3.org/2000/svg">
<path fill-rule="evenodd" clip-rule="evenodd" d="M100 180C144.183 180 180 144.183 180 100C180 55.8172 144.183 20 100 20C55.8172 20 20 55.8172 20 100C20 144.183 55.8172 180 100 180ZM100 200C155.228 200 200 155.228 200 100C200 44.7715 155.228 0 100 0C44.7715 0 0 44.7715 0 100C0 155.228 44.7715 200 100 200Z" fill="black"/>
<path d="M36 122.268V78.868H54.166C57.3487 78.868 60.2627 79.4053 62.908 80.48C65.5533 81.5133 67.8267 83.0013 69.728 84.944C71.6707 86.8867 73.1587 89.1807 74.192 91.826C75.2253 94.4713 75.742 97.3853 75.742 100.568C75.742 103.751 75.2253 106.685 74.192 109.372C73.1587 112.017 71.6707 114.311 69.728 116.254C67.8267 118.155 65.5533 119.643 62.908 120.718C60.2627 121.751 57.3487 122.268 54.166 122.268H36ZM46.54 115.076L45.114 112.968H53.856C55.592 112.968 57.142 112.679 58.506 112.1C59.87 111.48 61.0273 110.633 61.978 109.558C62.97 108.483 63.7347 107.181 64.272 105.652C64.8093 104.123 65.078 102.428 65.078 100.568C65.078 98.708 64.8093 97.0133 64.272 95.484C63.7347 93.9547 62.97 92.6527 61.978 91.578C61.0273 90.5033 59.87 89.6767 58.506 89.098C57.142 88.478 55.592 88.168 53.856 88.168H44.928L46.54 86.184V115.076Z" fill="#131313"/>
<path d="M103.609 122.888C100.343 122.888 97.3259 122.351 94.5566 121.276C91.8286 120.16 89.4519 118.61 87.4266 116.626C85.4012 114.601 83.8306 112.224 82.7146 109.496C81.6399 106.727 81.1026 103.689 81.1026 100.382C81.1026 97.158 81.6812 94.182 82.8386 91.454C83.9959 88.726 85.5872 86.37 87.6126 84.386C89.6792 82.3607 92.0972 80.79 94.8666 79.674C97.6772 78.558 100.736 78 104.043 78C106.109 78 108.135 78.2687 110.119 78.806C112.103 79.3433 113.942 80.1493 115.637 81.224C117.373 82.2573 118.861 83.4973 120.101 84.944L113.653 92.322C112.785 91.4127 111.855 90.6273 110.863 89.966C109.912 89.2633 108.858 88.726 107.701 88.354C106.543 87.982 105.303 87.796 103.981 87.796C102.327 87.796 100.757 88.106 99.2686 88.726C97.8219 89.3047 96.5406 90.152 95.4246 91.268C94.3499 92.3427 93.5026 93.6653 92.8826 95.236C92.2626 96.8067 91.9526 98.5633 91.9526 100.506C91.9526 102.407 92.2626 104.143 92.8826 105.714C93.5026 107.243 94.3706 108.566 95.4866 109.682C96.6026 110.798 97.9459 111.645 99.5166 112.224C101.129 112.803 102.906 113.092 104.849 113.092C106.171 113.092 107.432 112.906 108.631 112.534C109.829 112.162 110.925 111.666 111.917 111.046C112.95 110.385 113.859 109.641 114.645 108.814L119.729 116.874C118.695 118.031 117.311 119.065 115.575 119.974C113.88 120.883 111.979 121.607 109.871 122.144C107.804 122.64 105.717 122.888 103.609 122.888Z" fill="#131313"/>
<path d="M121.423 122.268L138.597 78.868H147.525L164.575 122.268H153.911L145.727 100.258C145.397 99.39 145.066 98.46 144.735 97.468C144.405 96.476 144.074 95.4633 143.743 94.43C143.413 93.3553 143.082 92.322 142.751 91.33C142.462 90.2967 142.214 89.346 142.007 88.478L143.867 88.416C143.619 89.4493 143.33 90.462 142.999 91.454C142.71 92.446 142.4 93.438 142.069 94.43C141.78 95.3807 141.449 96.352 141.077 97.344C140.705 98.2947 140.354 99.2867 140.023 100.32L131.839 122.268H121.423ZM129.607 113.96L132.893 106.024H152.857L156.081 113.96H129.607Z" fill="#131313"/>
<path d="M517.461 123.62C514.609 123.62 512.026 123.289 509.711 122.628C507.438 121.925 505.412 120.933 503.635 119.652C501.858 118.329 500.266 116.779 498.861 115.002L505.247 107.748C507.314 110.517 509.38 112.377 511.447 113.328C513.555 114.279 515.725 114.754 517.957 114.754C519.073 114.754 520.086 114.609 520.995 114.32C521.904 114.031 522.607 113.617 523.103 113.08C523.599 112.501 523.847 111.799 523.847 110.972C523.847 110.352 523.682 109.794 523.351 109.298C523.062 108.802 522.648 108.368 522.111 107.996C521.574 107.624 520.933 107.293 520.189 107.004C519.445 106.673 518.66 106.405 517.833 106.198C517.006 105.95 516.159 105.743 515.291 105.578C512.894 105.041 510.806 104.379 509.029 103.594C507.252 102.809 505.764 101.858 504.565 100.742C503.408 99.5846 502.54 98.2826 501.961 96.8359C501.382 95.3479 501.093 93.6946 501.093 91.8759C501.093 89.9332 501.527 88.1559 502.395 86.5439C503.304 84.8906 504.503 83.4852 505.991 82.3279C507.52 81.1292 509.277 80.2199 511.261 79.5999C513.245 78.9386 515.312 78.6079 517.461 78.6079C520.313 78.6079 522.752 78.9179 524.777 79.5379C526.844 80.1166 528.6 80.9639 530.047 82.0799C531.535 83.1959 532.796 84.5392 533.829 86.1099L527.319 92.3719C526.451 91.2972 525.5 90.4086 524.467 89.7059C523.475 89.0032 522.4 88.4659 521.243 88.0939C520.127 87.7219 518.97 87.5359 517.771 87.5359C516.531 87.5359 515.456 87.7012 514.547 88.0319C513.679 88.3212 512.997 88.7552 512.501 89.3339C512.005 89.8712 511.757 90.5326 511.757 91.3179C511.757 92.0206 511.964 92.6199 512.377 93.1159C512.79 93.6119 513.348 94.0666 514.051 94.4799C514.754 94.8519 515.56 95.1826 516.469 95.4719C517.378 95.7199 518.329 95.9266 519.321 96.0919C521.594 96.5466 523.64 97.1459 525.459 97.8899C527.319 98.6339 528.91 99.5432 530.233 100.618C531.597 101.693 532.63 102.974 533.333 104.462C534.077 105.909 534.449 107.603 534.449 109.546C534.449 112.563 533.705 115.126 532.217 117.234C530.77 119.301 528.766 120.892 526.203 122.008C523.682 123.083 520.768 123.62 517.461 123.62Z" fill="#131313"/>
<path d="M471.874 123V88.8999H458.978V79.5999H495.62V88.8999H482.414V123H471.874Z" fill="#131313"/>
<path d="M441.042 123V79.5999H451.582V123H441.042ZM414.134 123V79.5999H424.674V123H414.134ZM418.226 106.074L418.288 96.6499H446.622V106.074H418.226Z" fill="#131313"/>
<path d="M385.786 123.62C382.314 123.62 379.172 123.062 376.362 121.946C373.551 120.83 371.133 119.259 369.108 117.234C367.082 115.209 365.532 112.832 364.458 110.104C363.383 107.335 362.846 104.338 362.846 101.114C362.846 97.8899 363.404 94.9346 364.52 92.2479C365.677 89.5199 367.31 87.1433 369.418 85.1179C371.526 83.0926 374.006 81.5219 376.858 80.4059C379.751 79.2899 382.892 78.7319 386.282 78.7319C388.679 78.7319 390.932 79.0419 393.04 79.6619C395.189 80.2819 397.132 81.1293 398.868 82.2039C400.604 83.2786 402.071 84.5186 403.27 85.9239L396.884 92.6819C395.85 91.6899 394.776 90.8633 393.66 90.2019C392.585 89.5406 391.428 89.0239 390.188 88.6519C388.948 88.2386 387.625 88.0319 386.22 88.0319C384.401 88.0319 382.727 88.3626 381.198 89.0239C379.71 89.6853 378.387 90.6153 377.23 91.8139C376.114 92.9713 375.246 94.3559 374.626 95.9679C374.006 97.5386 373.696 99.2539 373.696 101.114C373.696 102.974 374.026 104.71 374.688 106.322C375.349 107.934 376.258 109.339 377.416 110.538C378.573 111.695 379.937 112.625 381.508 113.328C383.12 113.989 384.835 114.32 386.654 114.32C387.935 114.32 389.134 114.113 390.25 113.7C391.407 113.287 392.399 112.729 393.226 112.026C394.052 111.323 394.714 110.497 395.21 109.546C395.706 108.554 395.954 107.5 395.954 106.384V104.772L397.318 106.88H385.352V98.6339H405.75C405.832 99.0886 405.894 99.7086 405.936 100.494C405.977 101.279 405.998 102.044 405.998 102.788C406.039 103.532 406.06 104.09 406.06 104.462C406.06 107.273 405.543 109.856 404.51 112.212C403.518 114.527 402.112 116.531 400.294 118.226C398.475 119.921 396.326 121.243 393.846 122.194C391.366 123.145 388.679 123.62 385.786 123.62Z" fill="#131313"/>
<path d="M331.285 123V114.134H338.601V88.4659H331.285V79.5999H356.519V88.4659H349.141V114.134H356.519V123H331.285Z" fill="#131313"/>
<path d="M307.242 123.62C304.39 123.62 301.807 123.289 299.492 122.628C297.219 121.925 295.194 120.933 293.416 119.652C291.639 118.329 290.048 116.779 288.642 115.002L295.028 107.748C297.095 110.517 299.162 112.377 301.228 113.328C303.336 114.279 305.506 114.754 307.738 114.754C308.854 114.754 309.867 114.609 310.776 114.32C311.686 114.031 312.388 113.617 312.884 113.08C313.38 112.501 313.628 111.799 313.628 110.972C313.628 110.352 313.463 109.794 313.132 109.298C312.843 108.802 312.43 108.368 311.892 107.996C311.355 107.624 310.714 107.293 309.97 107.004C309.226 106.673 308.441 106.405 307.614 106.198C306.788 105.95 305.94 105.743 305.072 105.578C302.675 105.041 300.588 104.379 298.81 103.594C297.033 102.809 295.545 101.858 294.346 100.742C293.189 99.5846 292.321 98.2826 291.742 96.8359C291.164 95.3479 290.874 93.6946 290.874 91.8759C290.874 89.9332 291.308 88.1559 292.176 86.5439C293.086 84.8906 294.284 83.4852 295.772 82.3279C297.302 81.1292 299.058 80.2199 301.042 79.5999C303.026 78.9386 305.093 78.6079 307.242 78.6079C310.094 78.6079 312.533 78.9179 314.558 79.5379C316.625 80.1166 318.382 80.9639 319.828 82.0799C321.316 83.1959 322.577 84.5392 323.61 86.1099L317.1 92.3719C316.232 91.2972 315.282 90.4086 314.248 89.7059C313.256 89.0032 312.182 88.4659 311.024 88.0939C309.908 87.7219 308.751 87.5359 307.552 87.5359C306.312 87.5359 305.238 87.7012 304.328 88.0319C303.46 88.3212 302.778 88.7552 302.282 89.3339C301.786 89.8712 301.538 90.5326 301.538 91.3179C301.538 92.0206 301.745 92.6199 302.158 93.1159C302.572 93.6119 303.13 94.0666 303.832 94.4799C304.535 94.8519 305.341 95.1826 306.25 95.4719C307.16 95.7199 308.11 95.9266 309.102 96.0919C311.376 96.5466 313.422 97.1459 315.24 97.8899C317.1 98.6339 318.692 99.5432 320.014 100.618C321.378 101.693 322.412 102.974 323.114 104.462C323.858 105.909 324.23 107.603 324.23 109.546C324.23 112.563 323.486 115.126 321.998 117.234C320.552 119.301 318.547 120.892 315.984 122.008C313.463 123.083 310.549 123.62 307.242 123.62Z" fill="#131313"/>
<path d="M242.847 123V79.5999H252.271L275.025 110.6L272.979 110.29C272.772 108.926 272.607 107.624 272.483 106.384C272.359 105.144 272.235 103.925 272.111 102.726C272.028 101.527 271.945 100.308 271.863 99.0679C271.821 97.8279 271.78 96.4846 271.739 95.0379C271.739 93.5913 271.739 92.0206 271.739 90.3259V79.5999H281.969V123H272.421L248.675 91.0079L251.837 91.4419C252.043 93.4259 252.209 95.1206 252.333 96.5259C252.498 97.8899 252.622 99.1092 252.705 100.184C252.829 101.259 252.911 102.23 252.953 103.098C252.994 103.966 253.015 104.834 253.015 105.702C253.056 106.529 253.077 107.459 253.077 108.492V123H242.847Z" fill="#131313"/>
<path d="M207.588 123V114.134H214.904V88.4659H207.588V79.5999H232.822V88.4659H225.444V114.134H232.822V123H207.588Z" fill="#131313"/>
</svg>
