<svg width="328" height="46" viewBox="0 0 328 46" fill="none" xmlns="http://www.w3.org/2000/svg">
<path d="M310.461 45.62C307.609 45.62 305.026 45.2893 302.711 44.628C300.438 43.9253 298.412 42.9333 296.635 41.652C294.858 40.3293 293.266 38.7793 291.861 37.002L298.247 29.748C300.314 32.5173 302.38 34.3773 304.447 35.328C306.555 36.2786 308.725 36.754 310.957 36.754C312.073 36.754 313.086 36.6093 313.995 36.32C314.904 36.0306 315.607 35.6173 316.103 35.08C316.599 34.5013 316.847 33.7986 316.847 32.972C316.847 32.352 316.682 31.794 316.351 31.298C316.062 30.802 315.648 30.368 315.111 29.996C314.574 29.624 313.933 29.2933 313.189 29.004C312.445 28.6733 311.66 28.4046 310.833 28.198C310.006 27.95 309.159 27.7433 308.291 27.578C305.894 27.0406 303.806 26.3793 302.029 25.594C300.252 24.8086 298.764 23.858 297.565 22.742C296.408 21.5846 295.54 20.2826 294.961 18.836C294.382 17.348 294.093 15.6946 294.093 13.876C294.093 11.9333 294.527 10.156 295.395 8.54397C296.304 6.89064 297.503 5.48531 298.991 4.32797C300.52 3.1293 302.277 2.21997 304.261 1.59997C306.245 0.938638 308.312 0.607971 310.461 0.607971C313.313 0.607971 315.752 0.917972 317.777 1.53797C319.844 2.11664 321.6 2.96397 323.047 4.07997C324.535 5.19597 325.796 6.53931 326.829 8.10997L320.319 14.372C319.451 13.2973 318.5 12.4086 317.467 11.706C316.475 11.0033 315.4 10.466 314.243 10.094C313.127 9.72197 311.97 9.53597 310.771 9.53597C309.531 9.53597 308.456 9.70131 307.547 10.032C306.679 10.3213 305.997 10.7553 305.501 11.334C305.005 11.8713 304.757 12.5326 304.757 13.318C304.757 14.0206 304.964 14.62 305.377 15.116C305.79 15.612 306.348 16.0666 307.051 16.48C307.754 16.852 308.56 17.1826 309.469 17.472C310.378 17.72 311.329 17.9266 312.321 18.092C314.594 18.5466 316.64 19.146 318.459 19.89C320.319 20.634 321.91 21.5433 323.233 22.618C324.597 23.6926 325.63 24.974 326.333 26.462C327.077 27.9086 327.449 29.6033 327.449 31.546C327.449 34.5633 326.705 37.126 325.217 39.234C323.77 41.3006 321.766 42.892 319.203 44.008C316.682 45.0826 313.768 45.62 310.461 45.62Z" fill="#131313"/>
<path d="M264.874 45V10.9H251.978V1.59998H288.62V10.9H275.414V45H264.874Z" fill="#131313"/>
<path d="M234.042 45V1.59998H244.582V45H234.042ZM207.134 45V1.59998H217.674V45H207.134ZM211.226 28.074L211.288 18.65H239.622V28.074H211.226Z" fill="#131313"/>
<path d="M178.786 45.62C175.314 45.62 172.172 45.062 169.362 43.946C166.551 42.83 164.133 41.2593 162.108 39.234C160.082 37.2087 158.532 34.832 157.458 32.104C156.383 29.3347 155.846 26.338 155.846 23.114C155.846 19.89 156.404 16.9347 157.52 14.248C158.677 11.52 160.31 9.14333 162.418 7.118C164.526 5.09266 167.006 3.522 169.858 2.406C172.751 1.29 175.892 0.731995 179.282 0.731995C181.679 0.731995 183.932 1.042 186.04 1.66199C188.189 2.282 190.132 3.12933 191.868 4.20399C193.604 5.27866 195.071 6.51866 196.27 7.92399L189.884 14.682C188.85 13.69 187.776 12.8633 186.66 12.202C185.585 11.5407 184.428 11.024 183.188 10.652C181.948 10.2387 180.625 10.032 179.22 10.032C177.401 10.032 175.727 10.3627 174.198 11.024C172.71 11.6853 171.387 12.6153 170.23 13.814C169.114 14.9713 168.246 16.356 167.626 17.968C167.006 19.5387 166.696 21.254 166.696 23.114C166.696 24.974 167.026 26.71 167.688 28.322C168.349 29.934 169.258 31.3393 170.416 32.538C171.573 33.6953 172.937 34.6253 174.508 35.328C176.12 35.9893 177.835 36.32 179.654 36.32C180.935 36.32 182.134 36.1133 183.25 35.7C184.407 35.2867 185.399 34.7287 186.226 34.026C187.052 33.3233 187.714 32.4967 188.21 31.546C188.706 30.554 188.954 29.5 188.954 28.384V26.772L190.318 28.88H178.352V20.634H198.75C198.832 21.0887 198.894 21.7087 198.936 22.494C198.977 23.2793 198.998 24.044 198.998 24.788C199.039 25.532 199.06 26.09 199.06 26.462C199.06 29.2727 198.543 31.856 197.51 34.212C196.518 36.5267 195.112 38.5313 193.294 40.226C191.475 41.9207 189.326 43.2433 186.846 44.194C184.366 45.1447 181.679 45.62 178.786 45.62Z" fill="#131313"/>
<path d="M124.285 45V36.134H131.601V10.466H124.285V1.59998H149.519V10.466H142.141V36.134H149.519V45H124.285Z" fill="#131313"/>
<path d="M100.242 45.62C97.3903 45.62 94.807 45.2893 92.4923 44.628C90.219 43.9253 88.1937 42.9333 86.4163 41.652C84.639 40.3293 83.0477 38.7793 81.6423 37.002L88.0283 29.748C90.095 32.5173 92.1617 34.3773 94.2283 35.328C96.3363 36.2786 98.5063 36.754 100.738 36.754C101.854 36.754 102.867 36.6093 103.776 36.32C104.686 36.0306 105.388 35.6173 105.884 35.08C106.38 34.5013 106.628 33.7986 106.628 32.972C106.628 32.352 106.463 31.794 106.132 31.298C105.843 30.802 105.43 30.368 104.892 29.996C104.355 29.624 103.714 29.2933 102.97 29.004C102.226 28.6733 101.441 28.4046 100.614 28.198C99.7877 27.95 98.9403 27.7433 98.0723 27.578C95.675 27.0406 93.5877 26.3793 91.8103 25.594C90.033 24.8086 88.545 23.858 87.3463 22.742C86.189 21.5846 85.321 20.2826 84.7423 18.836C84.1637 17.348 83.8743 15.6946 83.8743 13.876C83.8743 11.9333 84.3083 10.156 85.1763 8.54397C86.0857 6.89064 87.2843 5.48531 88.7723 4.32797C90.3017 3.1293 92.0583 2.21997 94.0423 1.59997C96.0263 0.938638 98.093 0.607971 100.242 0.607971C103.094 0.607971 105.533 0.917972 107.558 1.53797C109.625 2.11664 111.382 2.96397 112.828 4.07997C114.316 5.19597 115.577 6.53931 116.61 8.10997L110.1 14.372C109.232 13.2973 108.282 12.4086 107.248 11.706C106.256 11.0033 105.182 10.466 104.024 10.094C102.908 9.72197 101.751 9.53597 100.552 9.53597C99.3123 9.53597 98.2377 9.70131 97.3283 10.032C96.4603 10.3213 95.7783 10.7553 95.2823 11.334C94.7863 11.8713 94.5383 12.5326 94.5383 13.318C94.5383 14.0206 94.745 14.62 95.1583 15.116C95.5717 15.612 96.1297 16.0666 96.8323 16.48C97.535 16.852 98.341 17.1826 99.2503 17.472C100.16 17.72 101.11 17.9266 102.102 18.092C104.376 18.5466 106.422 19.146 108.24 19.89C110.1 20.634 111.692 21.5433 113.014 22.618C114.378 23.6926 115.412 24.974 116.114 26.462C116.858 27.9086 117.23 29.6033 117.23 31.546C117.23 34.5633 116.486 37.126 114.998 39.234C113.552 41.3006 111.547 42.892 108.984 44.008C106.463 45.0826 103.549 45.62 100.242 45.62Z" fill="#131313"/>
<path d="M35.8466 45V1.59998H45.2706L68.0246 32.6L65.9786 32.29C65.7719 30.926 65.6066 29.624 65.4826 28.384C65.3586 27.144 65.2346 25.9246 65.1106 24.726C65.028 23.5273 64.9453 22.308 64.8626 21.068C64.8213 19.828 64.7799 18.4846 64.7386 17.038C64.7386 15.5913 64.7386 14.0206 64.7386 12.326V1.59998H74.9686V45H65.4206L41.6746 13.008L44.8366 13.442C45.0433 15.426 45.2086 17.1206 45.3326 18.526C45.498 19.89 45.6219 21.1093 45.7046 22.184C45.8286 23.2586 45.9113 24.23 45.9526 25.098C45.994 25.966 46.0146 26.834 46.0146 27.702C46.056 28.5286 46.0766 29.4586 46.0766 30.492V45H35.8466Z" fill="#131313"/>
<path d="M0.588013 45V36.134H7.90401V10.466H0.588013V1.59998H25.822V10.466H18.444V36.134H25.822V45H0.588013Z" fill="#131313"/>
</svg>
